<?xml version="1.0" encoding="UTF-8"?>
<svg xmlns="http://www.w3.org/2000/svg" width="760" height="2260" viewBox="0 0 760 2260"><defs><marker id="arrow" markerWidth="8" markerHeight="8" refX="6.5" refY="3.5" orient="auto"><path d="M0,0 L7,3.5 L0,7 Z" fill="#9aa3aa"/></marker><filter id="shadow" x="-10%" y="-10%" width="120%" height="125%"><feDropShadow dx="0" dy="2" stdDeviation="2" flood-color="#8ca0b3" flood-opacity="0.13"/></filter></defs><style>svg{background:#fff}.title{font:700 28px Microsoft YaHei,Noto Sans SC,Arial,sans-serif;fill:#274866}.subtitle{font:500 14px Microsoft YaHei,Noto Sans SC,Arial,sans-serif;fill:#7b8b99}.box-text{font:700 17px Microsoft YaHei,Noto Sans SC,Arial,sans-serif;fill:#2791ff}.edge{fill:none;stroke:#9aa3aa;stroke-width:1.5;marker-end:url(#arrow)}rect{filter:url(#shadow)}</style><rect width="760" height="2260" fill="#ffffff"/><text class="title" x="380" y="42" text-anchor="middle">v10 + MDPO 架构</text><text class="subtitle" x="380" y="76" text-anchor="middle">七维偏好直接更新策略 · 奖励重排关闭</text><line x1="180" y1="218" x2="180" y2="258" class="edge"/><line x1="180" y1="350" x2="180" y2="390" class="edge"/><path d="M 180 472 V 496 H 380 V 520" class="edge"/><path d="M 580 218 V 486 H 380 V 520" class="edge"/><line x1="380" y1="626" x2="380" y2="668" class="edge"/><line x1="380" y1="774" x2="380" y2="816" class="edge"/><line x1="380" y1="922" x2="380" y2="974" class="edge"/><line x1="380" y1="1060" x2="380" y2="1102" class="edge"/><line x1="380" y1="1196" x2="380" y2="1238" class="edge"/><line x1="380" y1="1326" x2="380" y2="1368" class="edge"/><line x1="380" y1="1468" x2="380" y2="1510" class="edge"/><line x1="380" y1="1610" x2="380" y2="1652" class="edge"/><line x1="380" y1="1752" x2="380" y2="1794" class="edge"/><line x1="380" y1="1886" x2="380" y2="1928" class="edge"/><line x1="380" y1="2010" x2="380" y2="2052" class="edge"/><line x1="380" y1="2128" x2="380" y2="2168" class="edge"/><g><rect x="30" y="126" width="300" height="92" rx="24" fill="#f0eaff" stroke="#d9ccef" stroke-width="1.6"/><text class="box-text" text-anchor="middle"><tspan x="180" y="166.5">train33 安全候选对</tspan><tspan x="180" y="191.5">六图可视化</tspan></text></g><g><rect x="430" y="126" width="300" height="92" rx="24" fill="#f2f5f8" stroke="#d7dee6" stroke-width="1.6"/><text class="box-text" text-anchor="middle"><tspan x="580" y="166.5">冻结原始 v10</tspan><tspan x="580" y="191.5">参考策略 πref</tspan></text></g><g><rect x="35" y="258" width="290" height="92" rx="24" fill="#f0eaff" stroke="#d9ccef" stroke-width="1.6"/><text class="box-text" text-anchor="middle"><tspan x="180" y="298.5">Qwen 七维视觉偏好</tspan><tspan x="180" y="323.5">仅离线评分</tspan></text></g><g><rect x="40" y="390" width="280" height="82" rx="24" fill="#e4f2ff" stroke="#cbdbe9" stroke-width="1.6"/><text class="box-text" text-anchor="middle"><tspan x="180" y="438">chosen / rejected 偏好</tspan></text></g><g><rect x="210" y="520" width="340" height="106" rx="24" fill="#f0eaff" stroke="#d9ccef" stroke-width="1.6"/><text class="box-text" text-anchor="middle"><tspan x="380" y="567.5">七维 MDPO 损失</tspan><tspan x="380" y="592.5">reference KL + 分维偏好</tspan></text></g><g><rect x="190" y="668" width="380" height="106" rx="24" fill="#fff4dc" stroke="#ead8ae" stroke-width="1.6"/><text class="box-text" text-anchor="middle"><tspan x="380" y="715.5">v10 监督 + Center-tail CVaR</tspan><tspan x="380" y="740.5">确定性几何安全损失</tspan></text></g><g><rect x="170" y="816" width="420" height="106" rx="24" fill="#e8f8f2" stroke="#c3e3d7" stroke-width="1.6"/><text class="box-text" text-anchor="middle"><tspan x="380" y="863.5">LoRA + bias 更新</tspan><tspan x="380" y="888.5">GNN2 · Transformer · MoE · Decoder</tspan></text></g><g><rect x="190" y="974" width="380" height="86" rx="24" fill="#e4f2ff" stroke="#cbdbe9" stroke-width="1.6"/><text class="box-text" text-anchor="middle"><tspan x="380" y="1024">Clean OBJ + 固定标签契约</tspan></text></g><g><rect x="185" y="1102" width="390" height="94" rx="24" fill="#e4f2ff" stroke="#cbdbe9" stroke-width="1.6"/><text class="box-text" text-anchor="middle"><tspan x="380" y="1143.5">DGCNN 64D + 51D 标签编码</tspan><tspan x="380" y="1168.5">锚点局部坐标系</tspan></text></g><g><rect x="220" y="1238" width="320" height="88" rx="24" fill="#e4f2ff" stroke="#cbdbe9" stroke-width="1.6"/><text class="box-text" text-anchor="middle"><tspan x="380" y="1289">128D 融合 → 64D</tspan></text></g><g><rect x="190" y="1368" width="380" height="100" rx="24" fill="#e8f8f2" stroke="#c3e3d7" stroke-width="1.6"/><text class="box-text" text-anchor="middle"><tspan x="380" y="1412.5">更新后的 GNN2 + Transformer</tspan><tspan x="380" y="1437.5">全标签关系推理</tspan></text></g><g><rect x="190" y="1510" width="380" height="100" rx="24" fill="#e8f8f2" stroke="#c3e3d7" stroke-width="1.6"/><text class="box-text" text-anchor="middle"><tspan x="380" y="1554.5">更新后的 MoE 四专家</tspan><tspan x="380" y="1579.5">64→32→6 解码</tspan></text></g><g><rect x="190" y="1652" width="380" height="100" rx="24" fill="#e4f2ff" stroke="#cbdbe9" stroke-width="1.6"/><text class="box-text" text-anchor="middle"><tspan x="380" y="1696.5">六维连续高斯策略</tspan><tspan x="380" y="1721.5">局部中心与 log size</tspan></text></g><g><rect x="180" y="1794" width="400" height="92" rx="24" fill="#e4f2ff" stroke="#cbdbe9" stroke-width="1.6"/><text class="box-text" text-anchor="middle"><tspan x="380" y="1847">确定性五视角优化与安全门控</tspan></text></g><g><rect x="245" y="1928" width="270" height="82" rx="24" fill="#e4f2ff" stroke="#cbdbe9" stroke-width="1.6"/><text class="box-text" text-anchor="middle"><tspan x="380" y="1963.5">安全候选</tspan><tspan x="380" y="1988.5">奖励重排关闭</tspan></text></g><g><rect x="270" y="2052" width="220" height="76" rx="24" fill="#fff4dc" stroke="#ead8ae" stroke-width="1.6"/><text class="box-text" text-anchor="middle"><tspan x="380" y="2097">MDPO 候选布局</tspan></text></g><g><rect x="205" y="2168" width="350" height="62" rx="24" fill="#f2f5f8" stroke="#d7dee6" stroke-width="1.6"/><text class="box-text" text-anchor="middle"><tspan x="380" y="2206">当前：被拒候选 / 未部署</tspan></text></g></svg>
