<?xml version="1.0" encoding="UTF-8"?>
<svg xmlns="http://www.w3.org/2000/svg" width="760" height="2540" viewBox="0 0 760 2540"><defs><marker id="arrow" markerWidth="8" markerHeight="8" refX="6.5" refY="3.5" orient="auto"><path d="M0,0 L7,3.5 L0,7 Z" fill="#9aa3aa"/></marker><filter id="shadow" x="-10%" y="-10%" width="120%" height="125%"><feDropShadow dx="0" dy="2" stdDeviation="2" flood-color="#8ca0b3" flood-opacity="0.13"/></filter></defs><style>svg{background:#fff}.title{font:700 28px Microsoft YaHei,Noto Sans SC,Arial,sans-serif;fill:#274866}.subtitle{font:500 14px Microsoft YaHei,Noto Sans SC,Arial,sans-serif;fill:#7b8b99}.box-text{font:700 17px Microsoft YaHei,Noto Sans SC,Arial,sans-serif;fill:#2791ff}.edge{fill:none;stroke:#9aa3aa;stroke-width:1.5;marker-end:url(#arrow)}rect{filter:url(#shadow)}</style><rect width="760" height="2540" fill="#ffffff"/><text class="title" x="380" y="42" text-anchor="middle">v10 + MDPO + 基础奖励 MLP</text><text class="subtitle" x="380" y="76" text-anchor="middle">MDPO 策略候选 + 历史奖励重排</text><line x1="180" y1="218" x2="180" y2="258" class="edge"/><path d="M 180 350 V 376 H 380 V 402" class="edge"/><path d="M 580 218 V 370 H 380 V 402" class="edge"/><line x1="380" y1="508" x2="380" y2="550" class="edge"/><line x1="380" y1="656" x2="380" y2="708" class="edge"/><line x1="380" y1="794" x2="380" y2="836" class="edge"/><line x1="380" y1="930" x2="380" y2="972" class="edge"/><line x1="380" y1="1060" x2="380" y2="1102" class="edge"/><line x1="380" y1="1202" x2="380" y2="1244" class="edge"/><line x1="380" y1="1344" x2="380" y2="1386" class="edge"/><line x1="380" y1="1480" x2="380" y2="1522" class="edge"/><line x1="380" y1="1614" x2="380" y2="1656" class="edge"/><line x1="380" y1="1738" x2="380" y2="1778" class="edge"/><line x1="380" y1="1860" x2="380" y2="1900" class="edge"/><line x1="380" y1="1994" x2="380" y2="2036" class="edge"/><line x1="380" y1="2118" x2="380" y2="2158" class="edge"/><line x1="380" y1="2234" x2="380" y2="2274" class="edge"/><g><rect x="30" y="126" width="300" height="92" rx="24" fill="#f0eaff" stroke="#d9ccef" stroke-width="1.6"/><text class="box-text" text-anchor="middle"><tspan x="180" y="166.5">train33 安全候选对</tspan><tspan x="180" y="191.5">六图可视化</tspan></text></g><g><rect x="430" y="126" width="300" height="92" rx="24" fill="#f2f5f8" stroke="#d7dee6" stroke-width="1.6"/><text class="box-text" text-anchor="middle"><tspan x="580" y="166.5">冻结原始 v10</tspan><tspan x="580" y="191.5">参考策略 πref</tspan></text></g><g><rect x="35" y="258" width="290" height="92" rx="24" fill="#f0eaff" stroke="#d9ccef" stroke-width="1.6"/><text class="box-text" text-anchor="middle"><tspan x="180" y="298.5">Qwen 七维视觉偏好</tspan><tspan x="180" y="323.5">仅离线评分</tspan></text></g><g><rect x="210" y="402" width="340" height="106" rx="24" fill="#f0eaff" stroke="#d9ccef" stroke-width="1.6"/><text class="box-text" text-anchor="middle"><tspan x="380" y="449.5">MDPO + reference KL</tspan><tspan x="380" y="474.5">监督 + CVaR + 安全</tspan></text></g><g><rect x="170" y="550" width="420" height="106" rx="24" fill="#e8f8f2" stroke="#c3e3d7" stroke-width="1.6"/><text class="box-text" text-anchor="middle"><tspan x="380" y="597.5">LoRA + bias 更新</tspan><tspan x="380" y="622.5">GNN2 · Transformer · MoE · Decoder</tspan></text></g><g><rect x="190" y="708" width="380" height="86" rx="24" fill="#e4f2ff" stroke="#cbdbe9" stroke-width="1.6"/><text class="box-text" text-anchor="middle"><tspan x="380" y="758">Clean OBJ + 固定标签契约</tspan></text></g><g><rect x="185" y="836" width="390" height="94" rx="24" fill="#e4f2ff" stroke="#cbdbe9" stroke-width="1.6"/><text class="box-text" text-anchor="middle"><tspan x="380" y="877.5">DGCNN 64D + 51D 标签编码</tspan><tspan x="380" y="902.5">锚点局部坐标系</tspan></text></g><g><rect x="220" y="972" width="320" height="88" rx="24" fill="#e4f2ff" stroke="#cbdbe9" stroke-width="1.6"/><text class="box-text" text-anchor="middle"><tspan x="380" y="1023">128D 融合 → 64D</tspan></text></g><g><rect x="190" y="1102" width="380" height="100" rx="24" fill="#e8f8f2" stroke="#c3e3d7" stroke-width="1.6"/><text class="box-text" text-anchor="middle"><tspan x="380" y="1146.5">更新后的 GNN2 + Transformer</tspan><tspan x="380" y="1171.5">全标签关系推理</tspan></text></g><g><rect x="190" y="1244" width="380" height="100" rx="24" fill="#e8f8f2" stroke="#c3e3d7" stroke-width="1.6"/><text class="box-text" text-anchor="middle"><tspan x="380" y="1288.5">更新后的 MoE 四专家</tspan><tspan x="380" y="1313.5">64→32→6 解码</tspan></text></g><g><rect x="190" y="1386" width="380" height="94" rx="24" fill="#e4f2ff" stroke="#cbdbe9" stroke-width="1.6"/><text class="box-text" text-anchor="middle"><tspan x="380" y="1440">六维连续策略输出</tspan></text></g><g><rect x="180" y="1522" width="400" height="92" rx="24" fill="#e4f2ff" stroke="#cbdbe9" stroke-width="1.6"/><text class="box-text" text-anchor="middle"><tspan x="380" y="1575">确定性五视角优化与安全门控</tspan></text></g><g><rect x="245" y="1656" width="270" height="82" rx="24" fill="#e4f2ff" stroke="#cbdbe9" stroke-width="1.6"/><text class="box-text" text-anchor="middle"><tspan x="380" y="1704">多个 MDPO 安全候选</tspan></text></g><g><rect x="245" y="1778" width="270" height="82" rx="24" fill="#e4f2ff" stroke="#cbdbe9" stroke-width="1.6"/><text class="box-text" text-anchor="middle"><tspan x="380" y="1826">12D 布局统计特征</tspan></text></g><g><rect x="230" y="1900" width="300" height="94" rx="24" fill="#f0eaff" stroke="#d9ccef" stroke-width="1.6"/><text class="box-text" text-anchor="middle"><tspan x="380" y="1941.5">基础奖励 MLP</tspan><tspan x="380" y="1966.5">12→32 tanh→1</tspan></text></g><g><rect x="220" y="2036" width="320" height="82" rx="24" fill="#f0eaff" stroke="#d9ccef" stroke-width="1.6"/><text class="box-text" text-anchor="middle"><tspan x="380" y="2084">安全候选美学重排</tspan></text></g><g><rect x="270" y="2158" width="220" height="76" rx="24" fill="#fff4dc" stroke="#ead8ae" stroke-width="1.6"/><text class="box-text" text-anchor="middle"><tspan x="380" y="2203">候选对照布局</tspan></text></g><g><rect x="205" y="2274" width="350" height="62" rx="24" fill="#f2f5f8" stroke="#d7dee6" stroke-width="1.6"/><text class="box-text" text-anchor="middle"><tspan x="380" y="2312">当前：候选对照 / 未部署</tspan></text></g></svg>
